<mxfile host="app.diagrams.net" modified="2024-06-26T09:02:31.263Z" agent="Mozilla/5.0 (Macintosh; Intel Mac OS X 10_15_7) AppleWebKit/537.36 (KHTML, like Gecko) Chrome/126.0.0.0 Safari/537.36" etag="Sk5kVB4NNlG5h_YARbHK" version="24.6.2" type="device">
  <diagram name="Trang-1" id="XJ551pJ1zo0d7ZmuuWxe">
    <mxGraphModel dx="1238" dy="1076" grid="1" gridSize="10" guides="1" tooltips="1" connect="1" arrows="1" fold="1" page="1" pageScale="1" pageWidth="827" pageHeight="1169" math="1" shadow="0">
      <root>
        <mxCell id="0" />
        <mxCell id="1" parent="0" />
        <mxCell id="n_zXnTt7gnvoybmHU0eO-1" value="&lt;font face=&quot;Times New Roman&quot; style=&quot;font-size: 24px;&quot;&gt;LSTM&lt;/font&gt;" style="text;html=1;align=center;verticalAlign=middle;resizable=0;points=[];autosize=1;strokeColor=none;fillColor=none;" vertex="1" parent="1">
          <mxGeometry x="90" y="98" width="90" height="40" as="geometry" />
        </mxCell>
        <mxCell id="n_zXnTt7gnvoybmHU0eO-2" value="&lt;font style=&quot;font-size: 18px;&quot;&gt;Forget Gate&lt;/font&gt;" style="rounded=1;whiteSpace=wrap;html=1;" vertex="1" parent="1">
          <mxGeometry x="80" y="280" width="120" height="60" as="geometry" />
        </mxCell>
        <mxCell id="n_zXnTt7gnvoybmHU0eO-3" value="" style="edgeStyle=none;orthogonalLoop=1;jettySize=auto;html=1;rounded=0;" edge="1" parent="1">
          <mxGeometry width="100" relative="1" as="geometry">
            <mxPoint x="90" y="230" as="sourcePoint" />
            <mxPoint x="90" y="280" as="targetPoint" />
            <Array as="points" />
          </mxGeometry>
        </mxCell>
        <mxCell id="n_zXnTt7gnvoybmHU0eO-4" value="" style="edgeStyle=none;orthogonalLoop=1;jettySize=auto;html=1;rounded=0;" edge="1" parent="1">
          <mxGeometry width="100" relative="1" as="geometry">
            <mxPoint x="184.5" y="230" as="sourcePoint" />
            <mxPoint x="184.5" y="280" as="targetPoint" />
            <Array as="points" />
          </mxGeometry>
        </mxCell>
        <mxCell id="n_zXnTt7gnvoybmHU0eO-5" value="" style="edgeStyle=none;orthogonalLoop=1;jettySize=auto;html=1;rounded=0;" edge="1" parent="1">
          <mxGeometry width="100" relative="1" as="geometry">
            <mxPoint x="139.5" y="340" as="sourcePoint" />
            <mxPoint x="140" y="380" as="targetPoint" />
            <Array as="points" />
          </mxGeometry>
        </mxCell>
        <mxCell id="n_zXnTt7gnvoybmHU0eO-6" value="&lt;font style=&quot;font-size: 18px;&quot;&gt;Cell State&lt;/font&gt;" style="rounded=1;whiteSpace=wrap;html=1;" vertex="1" parent="1">
          <mxGeometry x="80" y="450" width="120" height="60" as="geometry" />
        </mxCell>
        <mxCell id="n_zXnTt7gnvoybmHU0eO-7" value="" style="edgeStyle=none;orthogonalLoop=1;jettySize=auto;html=1;rounded=0;" edge="1" parent="1">
          <mxGeometry width="100" relative="1" as="geometry">
            <mxPoint x="139.5" y="510" as="sourcePoint" />
            <mxPoint x="139.5" y="560" as="targetPoint" />
            <Array as="points" />
          </mxGeometry>
        </mxCell>
        <mxCell id="n_zXnTt7gnvoybmHU0eO-8" value="&lt;font style=&quot;font-size: 18px;&quot;&gt;Input Gate&lt;/font&gt;" style="rounded=1;whiteSpace=wrap;html=1;" vertex="1" parent="1">
          <mxGeometry x="80" y="560" width="120" height="60" as="geometry" />
        </mxCell>
        <mxCell id="n_zXnTt7gnvoybmHU0eO-9" value="" style="edgeStyle=none;orthogonalLoop=1;jettySize=auto;html=1;rounded=0;endArrow=none;endFill=0;" edge="1" parent="1">
          <mxGeometry width="100" relative="1" as="geometry">
            <mxPoint x="200" y="510" as="sourcePoint" />
            <mxPoint x="280" y="560" as="targetPoint" />
            <Array as="points" />
          </mxGeometry>
        </mxCell>
        <mxCell id="n_zXnTt7gnvoybmHU0eO-10" value="&lt;font style=&quot;font-size: 18px;&quot;&gt;Candidate Cell State&lt;/font&gt;" style="rounded=1;whiteSpace=wrap;html=1;" vertex="1" parent="1">
          <mxGeometry x="250" y="560" width="120" height="60" as="geometry" />
        </mxCell>
        <mxCell id="n_zXnTt7gnvoybmHU0eO-11" value="" style="edgeStyle=none;orthogonalLoop=1;jettySize=auto;html=1;rounded=0;" edge="1" parent="1">
          <mxGeometry width="100" relative="1" as="geometry">
            <mxPoint x="90" y="620" as="sourcePoint" />
            <mxPoint x="90" y="670" as="targetPoint" />
            <Array as="points" />
          </mxGeometry>
        </mxCell>
        <mxCell id="n_zXnTt7gnvoybmHU0eO-12" value="" style="edgeStyle=none;orthogonalLoop=1;jettySize=auto;html=1;rounded=0;" edge="1" parent="1" target="n_zXnTt7gnvoybmHU0eO-46">
          <mxGeometry width="100" relative="1" as="geometry">
            <mxPoint x="190" y="620" as="sourcePoint" />
            <mxPoint x="190" y="670" as="targetPoint" />
            <Array as="points" />
          </mxGeometry>
        </mxCell>
        <mxCell id="n_zXnTt7gnvoybmHU0eO-13" value="" style="edgeStyle=none;orthogonalLoop=1;jettySize=auto;html=1;rounded=0;" edge="1" parent="1" target="n_zXnTt7gnvoybmHU0eO-46">
          <mxGeometry width="100" relative="1" as="geometry">
            <mxPoint x="290" y="620" as="sourcePoint" />
            <mxPoint x="290" y="670" as="targetPoint" />
            <Array as="points" />
          </mxGeometry>
        </mxCell>
        <mxCell id="n_zXnTt7gnvoybmHU0eO-14" value="" style="edgeStyle=none;orthogonalLoop=1;jettySize=auto;html=1;rounded=0;endArrow=none;endFill=0;" edge="1" parent="1">
          <mxGeometry width="100" relative="1" as="geometry">
            <mxPoint x="90" y="710" as="sourcePoint" />
            <mxPoint x="90" y="770" as="targetPoint" />
            <Array as="points" />
          </mxGeometry>
        </mxCell>
        <mxCell id="n_zXnTt7gnvoybmHU0eO-15" value="" style="edgeStyle=none;orthogonalLoop=1;jettySize=auto;html=1;rounded=0;endArrow=none;endFill=0;" edge="1" parent="1" source="n_zXnTt7gnvoybmHU0eO-46">
          <mxGeometry width="100" relative="1" as="geometry">
            <mxPoint x="190" y="700" as="sourcePoint" />
            <mxPoint x="130" y="770" as="targetPoint" />
            <Array as="points" />
          </mxGeometry>
        </mxCell>
        <mxCell id="n_zXnTt7gnvoybmHU0eO-16" value="&lt;font style=&quot;font-size: 18px;&quot;&gt;Cell State Update&lt;/font&gt;" style="rounded=1;whiteSpace=wrap;html=1;" vertex="1" parent="1">
          <mxGeometry x="80" y="770" width="120" height="60" as="geometry" />
        </mxCell>
        <mxCell id="n_zXnTt7gnvoybmHU0eO-17" value="" style="edgeStyle=none;orthogonalLoop=1;jettySize=auto;html=1;rounded=0;" edge="1" parent="1">
          <mxGeometry width="100" relative="1" as="geometry">
            <mxPoint x="120" y="830" as="sourcePoint" />
            <mxPoint x="120" y="880" as="targetPoint" />
            <Array as="points" />
          </mxGeometry>
        </mxCell>
        <mxCell id="n_zXnTt7gnvoybmHU0eO-18" value="" style="edgeStyle=none;orthogonalLoop=1;jettySize=auto;html=1;rounded=0;" edge="1" parent="1">
          <mxGeometry width="100" relative="1" as="geometry">
            <mxPoint x="160" y="900" as="sourcePoint" />
            <mxPoint x="240" y="900" as="targetPoint" />
            <Array as="points" />
          </mxGeometry>
        </mxCell>
        <mxCell id="n_zXnTt7gnvoybmHU0eO-19" value="&lt;font style=&quot;font-size: 18px;&quot;&gt;Output Gate&lt;/font&gt;" style="rounded=1;whiteSpace=wrap;html=1;" vertex="1" parent="1">
          <mxGeometry x="240" y="890" width="120" height="60" as="geometry" />
        </mxCell>
        <mxCell id="n_zXnTt7gnvoybmHU0eO-20" value="" style="edgeStyle=none;orthogonalLoop=1;jettySize=auto;html=1;rounded=0;" edge="1" parent="1">
          <mxGeometry width="100" relative="1" as="geometry">
            <mxPoint x="290" y="950" as="sourcePoint" />
            <mxPoint x="290" y="1000" as="targetPoint" />
            <Array as="points" />
          </mxGeometry>
        </mxCell>
        <mxCell id="n_zXnTt7gnvoybmHU0eO-21" value="" style="edgeStyle=none;orthogonalLoop=1;jettySize=auto;html=1;rounded=0;" edge="1" parent="1">
          <mxGeometry width="100" relative="1" as="geometry">
            <mxPoint x="290" y="1040" as="sourcePoint" />
            <mxPoint x="290" y="1090" as="targetPoint" />
            <Array as="points" />
          </mxGeometry>
        </mxCell>
        <mxCell id="n_zXnTt7gnvoybmHU0eO-22" value="&lt;font style=&quot;font-size: 18px;&quot;&gt;Reset Gate&lt;/font&gt;" style="rounded=1;whiteSpace=wrap;html=1;" vertex="1" parent="1">
          <mxGeometry x="650" y="280" width="120" height="60" as="geometry" />
        </mxCell>
        <mxCell id="n_zXnTt7gnvoybmHU0eO-23" value="" style="edgeStyle=none;orthogonalLoop=1;jettySize=auto;html=1;rounded=0;" edge="1" parent="1">
          <mxGeometry width="100" relative="1" as="geometry">
            <mxPoint x="660" y="230" as="sourcePoint" />
            <mxPoint x="660" y="280" as="targetPoint" />
            <Array as="points" />
          </mxGeometry>
        </mxCell>
        <mxCell id="n_zXnTt7gnvoybmHU0eO-24" value="" style="edgeStyle=none;orthogonalLoop=1;jettySize=auto;html=1;rounded=0;" edge="1" parent="1">
          <mxGeometry width="100" relative="1" as="geometry">
            <mxPoint x="760" y="230" as="sourcePoint" />
            <mxPoint x="760" y="280" as="targetPoint" />
            <Array as="points" />
          </mxGeometry>
        </mxCell>
        <mxCell id="n_zXnTt7gnvoybmHU0eO-25" value="" style="edgeStyle=none;orthogonalLoop=1;jettySize=auto;html=1;rounded=0;" edge="1" parent="1">
          <mxGeometry width="100" relative="1" as="geometry">
            <mxPoint x="709.5" y="340" as="sourcePoint" />
            <mxPoint x="709.5" y="390" as="targetPoint" />
            <Array as="points" />
          </mxGeometry>
        </mxCell>
        <mxCell id="n_zXnTt7gnvoybmHU0eO-26" value="&lt;font style=&quot;font-size: 18px;&quot;&gt;Update Gate&lt;/font&gt;" style="rounded=1;whiteSpace=wrap;html=1;" vertex="1" parent="1">
          <mxGeometry x="650" y="470" width="120" height="60" as="geometry" />
        </mxCell>
        <mxCell id="n_zXnTt7gnvoybmHU0eO-27" value="&lt;font face=&quot;Times New Roman&quot; style=&quot;font-size: 24px;&quot;&gt;GRU&lt;/font&gt;" style="text;html=1;align=center;verticalAlign=middle;resizable=0;points=[];autosize=1;strokeColor=none;fillColor=none;" vertex="1" parent="1">
          <mxGeometry x="675" y="98" width="70" height="40" as="geometry" />
        </mxCell>
        <mxCell id="n_zXnTt7gnvoybmHU0eO-28" value="" style="edgeStyle=none;orthogonalLoop=1;jettySize=auto;html=1;rounded=0;" edge="1" parent="1">
          <mxGeometry width="100" relative="1" as="geometry">
            <mxPoint x="709.5" y="420" as="sourcePoint" />
            <mxPoint x="709.5" y="470" as="targetPoint" />
            <Array as="points" />
          </mxGeometry>
        </mxCell>
        <mxCell id="n_zXnTt7gnvoybmHU0eO-29" value="" style="edgeStyle=none;orthogonalLoop=1;jettySize=auto;html=1;rounded=0;" edge="1" parent="1">
          <mxGeometry width="100" relative="1" as="geometry">
            <mxPoint x="709.5" y="530" as="sourcePoint" />
            <mxPoint x="709.5" y="580" as="targetPoint" />
            <Array as="points" />
          </mxGeometry>
        </mxCell>
        <mxCell id="n_zXnTt7gnvoybmHU0eO-30" value="" style="edgeStyle=none;orthogonalLoop=1;jettySize=auto;html=1;rounded=0;" edge="1" parent="1">
          <mxGeometry width="100" relative="1" as="geometry">
            <mxPoint x="709.5" y="610" as="sourcePoint" />
            <mxPoint x="709.5" y="660" as="targetPoint" />
            <Array as="points" />
          </mxGeometry>
        </mxCell>
        <mxCell id="n_zXnTt7gnvoybmHU0eO-31" value="&lt;font style=&quot;font-size: 18px;&quot;&gt;Candidate Activation&lt;/font&gt;" style="rounded=1;whiteSpace=wrap;html=1;" vertex="1" parent="1">
          <mxGeometry x="650" y="660" width="120" height="60" as="geometry" />
        </mxCell>
        <mxCell id="n_zXnTt7gnvoybmHU0eO-32" value="" style="edgeStyle=none;orthogonalLoop=1;jettySize=auto;html=1;rounded=0;" edge="1" parent="1">
          <mxGeometry width="100" relative="1" as="geometry">
            <mxPoint x="709.5" y="720" as="sourcePoint" />
            <mxPoint x="710" y="760" as="targetPoint" />
            <Array as="points" />
          </mxGeometry>
        </mxCell>
        <mxCell id="n_zXnTt7gnvoybmHU0eO-33" value="" style="edgeStyle=none;orthogonalLoop=1;jettySize=auto;html=1;rounded=0;" edge="1" parent="1">
          <mxGeometry width="100" relative="1" as="geometry">
            <mxPoint x="709.5" y="800" as="sourcePoint" />
            <mxPoint x="709.5" y="850" as="targetPoint" />
            <Array as="points" />
          </mxGeometry>
        </mxCell>
        <mxCell id="n_zXnTt7gnvoybmHU0eO-34" value="&lt;font style=&quot;font-size: 18px;&quot;&gt;Hidden State Update&lt;/font&gt;" style="rounded=1;whiteSpace=wrap;html=1;" vertex="1" parent="1">
          <mxGeometry x="650" y="850" width="120" height="60" as="geometry" />
        </mxCell>
        <mxCell id="n_zXnTt7gnvoybmHU0eO-35" value="" style="edgeStyle=none;orthogonalLoop=1;jettySize=auto;html=1;rounded=0;" edge="1" parent="1">
          <mxGeometry width="100" relative="1" as="geometry">
            <mxPoint x="709.5" y="910" as="sourcePoint" />
            <mxPoint x="709.5" y="960" as="targetPoint" />
            <Array as="points" />
          </mxGeometry>
        </mxCell>
        <mxCell id="n_zXnTt7gnvoybmHU0eO-37" value="" style="edgeStyle=none;orthogonalLoop=1;jettySize=auto;html=1;rounded=0;" edge="1" parent="1">
          <mxGeometry width="100" relative="1" as="geometry">
            <mxPoint x="140" y="410" as="sourcePoint" />
            <mxPoint x="139.5" y="450" as="targetPoint" />
            <Array as="points" />
          </mxGeometry>
        </mxCell>
        <mxCell id="n_zXnTt7gnvoybmHU0eO-38" value="&lt;span style=&quot;text-align: center; text-wrap: nowrap;&quot;&gt;&lt;font style=&quot;font-size: 24px;&quot;&gt;$$h_{t-1}$$&lt;/font&gt;&lt;/span&gt;" style="text;whiteSpace=wrap;html=1;" vertex="1" parent="1">
          <mxGeometry x="60" y="160" width="90" height="50" as="geometry" />
        </mxCell>
        <mxCell id="n_zXnTt7gnvoybmHU0eO-39" value="&lt;font style=&quot;font-size: 24px;&quot;&gt;$$x_t$$&lt;/font&gt;" style="text;html=1;align=center;verticalAlign=middle;resizable=0;points=[];autosize=1;strokeColor=none;fillColor=none;" vertex="1" parent="1">
          <mxGeometry x="130" y="190" width="110" height="40" as="geometry" />
        </mxCell>
        <mxCell id="n_zXnTt7gnvoybmHU0eO-43" value="&lt;font style=&quot;font-size: 24px;&quot;&gt;$$f_t$$&lt;/font&gt;" style="text;html=1;align=center;verticalAlign=middle;resizable=0;points=[];autosize=1;strokeColor=none;fillColor=none;" vertex="1" parent="1">
          <mxGeometry x="90" y="375" width="100" height="40" as="geometry" />
        </mxCell>
        <mxCell id="n_zXnTt7gnvoybmHU0eO-44" value="&lt;font style=&quot;font-size: 24px;&quot;&gt;$$i_t$$&lt;/font&gt;" style="text;html=1;align=center;verticalAlign=middle;resizable=0;points=[];autosize=1;strokeColor=none;fillColor=none;" vertex="1" parent="1">
          <mxGeometry x="40" y="670" width="100" height="40" as="geometry" />
        </mxCell>
        <mxCell id="n_zXnTt7gnvoybmHU0eO-46" value="&lt;font style=&quot;font-size: 24px;&quot;&gt;$$\tilde{C}_t$$&lt;/font&gt;" style="text;html=1;align=center;verticalAlign=middle;resizable=0;points=[];autosize=1;strokeColor=none;fillColor=none;" vertex="1" parent="1">
          <mxGeometry x="140" y="660" width="180" height="40" as="geometry" />
        </mxCell>
        <mxCell id="n_zXnTt7gnvoybmHU0eO-47" value="&lt;font style=&quot;font-size: 24px;&quot;&gt;$$C_t$$&lt;/font&gt;" style="text;html=1;align=center;verticalAlign=middle;resizable=0;points=[];autosize=1;strokeColor=none;fillColor=none;" vertex="1" parent="1">
          <mxGeometry x="65" y="880" width="110" height="40" as="geometry" />
        </mxCell>
        <mxCell id="n_zXnTt7gnvoybmHU0eO-48" value="&lt;font style=&quot;font-size: 24px;&quot;&gt;$$o_t$$&lt;/font&gt;" style="text;html=1;align=center;verticalAlign=middle;resizable=0;points=[];autosize=1;strokeColor=none;fillColor=none;" vertex="1" parent="1">
          <mxGeometry x="230" y="1000" width="110" height="40" as="geometry" />
        </mxCell>
        <mxCell id="n_zXnTt7gnvoybmHU0eO-49" value="&lt;font style=&quot;font-size: 24px;&quot;&gt;$$h_t$$&lt;/font&gt;" style="text;html=1;align=center;verticalAlign=middle;resizable=0;points=[];autosize=1;strokeColor=none;fillColor=none;" vertex="1" parent="1">
          <mxGeometry x="230" y="1090" width="110" height="40" as="geometry" />
        </mxCell>
        <mxCell id="n_zXnTt7gnvoybmHU0eO-50" value="&lt;span style=&quot;text-align: center; text-wrap: nowrap;&quot;&gt;&lt;font style=&quot;font-size: 24px;&quot;&gt;$$h_{t-1}$$&lt;/font&gt;&lt;/span&gt;" style="text;whiteSpace=wrap;html=1;" vertex="1" parent="1">
          <mxGeometry x="630" y="160" width="90" height="50" as="geometry" />
        </mxCell>
        <mxCell id="n_zXnTt7gnvoybmHU0eO-51" value="&lt;font style=&quot;font-size: 24px;&quot;&gt;$$x_t$$&lt;/font&gt;" style="text;html=1;align=center;verticalAlign=middle;resizable=0;points=[];autosize=1;strokeColor=none;fillColor=none;" vertex="1" parent="1">
          <mxGeometry x="700" y="190" width="110" height="40" as="geometry" />
        </mxCell>
        <mxCell id="n_zXnTt7gnvoybmHU0eO-52" value="&lt;font style=&quot;font-size: 24px;&quot;&gt;$$r_t$$&lt;/font&gt;" style="text;html=1;align=center;verticalAlign=middle;resizable=0;points=[];autosize=1;strokeColor=none;fillColor=none;" vertex="1" parent="1">
          <mxGeometry x="660" y="385" width="100" height="40" as="geometry" />
        </mxCell>
        <mxCell id="n_zXnTt7gnvoybmHU0eO-53" value="&lt;font style=&quot;font-size: 24px;&quot;&gt;$$z_t$$&lt;/font&gt;" style="text;html=1;align=center;verticalAlign=middle;resizable=0;points=[];autosize=1;strokeColor=none;fillColor=none;" vertex="1" parent="1">
          <mxGeometry x="655" y="570" width="110" height="40" as="geometry" />
        </mxCell>
        <mxCell id="n_zXnTt7gnvoybmHU0eO-55" value="" style="edgeStyle=orthogonalEdgeStyle;rounded=0;orthogonalLoop=1;jettySize=auto;html=1;" edge="1" parent="1" source="n_zXnTt7gnvoybmHU0eO-54" target="n_zXnTt7gnvoybmHU0eO-34">
          <mxGeometry relative="1" as="geometry" />
        </mxCell>
        <mxCell id="n_zXnTt7gnvoybmHU0eO-54" value="&lt;font style=&quot;font-size: 24px;&quot;&gt;$$\tilde{h_t}$$&lt;/font&gt;" style="text;html=1;align=center;verticalAlign=middle;resizable=0;points=[];autosize=1;strokeColor=none;fillColor=none;" vertex="1" parent="1">
          <mxGeometry x="620" y="760" width="180" height="40" as="geometry" />
        </mxCell>
        <mxCell id="n_zXnTt7gnvoybmHU0eO-56" value="&lt;font style=&quot;font-size: 24px;&quot;&gt;$$h_t$$&lt;/font&gt;" style="text;html=1;align=center;verticalAlign=middle;resizable=0;points=[];autosize=1;strokeColor=none;fillColor=none;" vertex="1" parent="1">
          <mxGeometry x="655" y="960" width="110" height="40" as="geometry" />
        </mxCell>
      </root>
    </mxGraphModel>
  </diagram>
</mxfile>
